<svg id="svg2" xmlns="http://www.w3.org/2000/svg" viewBox="0 0 1968.78 521.37"><defs><style>.cls-1{fill:#083d86;}.cls-2{fill:#fe000d;}</style></defs><title>logoColor</title><path id="path4660" class="cls-1" d="M910,520.61c-1.72-.3-5-0.84-7.26-1.21a14,14,0,0,1-6.56-3.1c-2.39-2.39-2.43-6-2.43-203.06V112.62H835.18c-32.23,0-60.39-.36-62.58-0.8-8.19-1.64-8.2-1.67-8.2-56.83,0-47,.12-49.75,2.38-52.24l2.38-2.63h184c179,0,184,.06,186.13,2.37,3.51,3.88,4.86,24.36,4.11,62.63-0.67,34.41-1.58,42-5.46,45.18-1.65,1.37-14,1.77-63.73,2.06l-61.68.36V313.2c0,178.51-.21,200.7-1.92,202.41-4.24,4.24-10.74,4.86-54.33,5.2C932.56,521,911.75,520.91,910,520.61Zm332.5,0.13c-1-.25-4.59-0.81-7.9-1.25s-7.08-1.85-8.44-3.2c-2.36-2.36-2.41-7.23-2.41-255.34,0-239.31.12-253,2.19-254.88C1231.17,1.4,1238,.76,1282.5.77c44,0,50.06.55,57.19,5.12l2.81,1.8v253c0,225.7-.21,253.21-1.92,254.92-4.26,4.26-10.72,4.89-53.71,5.24-23.34.15-43.31,0.15-44.34-.11h0Zm217.5,0c-1-.25-4.46-0.8-7.63-1.21s-7-1.88-8.44-3.25l-2.68-2.5V261.46c0-238.49.12-252.45,2.19-254.87,4.18-4.89,10.28-5.55,56.21-6.14,55.9-.72,74.05,1,82,7.64,2.3,1.93,14.19,28.78,43.78,98.91,56.26,133.32,65,155,77.75,193.75,3.63,11,6.91,19.16,7.28,18.13l9-25c4.57-12.72,13.22-35.5,19.22-50.62,18.84-47.53,95.4-231.09,97.88-234.67,1.6-2.32,4.67-4.14,9.48-5.62,6.28-1.94,12.88-2.2,56.49-2.2,50.57,0,56.13.45,63.44,5.13l2.81,1.8v253c0,226.5-.2,253.21-1.93,254.94-4.49,4.49-11.31,5.11-56.19,5.12-46.67,0-53.72-.54-57.94-4.47l-2.68-2.5v-150c0-85.3-.47-150-1.1-150s-3.09,5.77-5.53,12.81c-8.45,24.45-81.19,202.83-83.84,205.6-4.2,4.39-13.34,5.34-51.41,5.34-36.61,0-46.58-.93-51.87-4.82-2.36-1.74-13.41-26.33-45.32-100.93-23.21-54.25-43.5-102.85-45.1-108s-3.42-9.23-4.05-9.06-1.4,60.27-1.78,150.36c-0.55,131.55-.86,150.19-2.5,151.25-5.54,3.55-12.19,4.1-53.12,4.43-23.37.19-43.34,0.14-44.37-.11h0Z" transform="translate(0 0)"/><path id="path4680" class="cls-2" d="M19.41,519.37c-7.05-2.58-15.18-11-17.56-18.17C0.21,496.27-.06,489.8.26,462.9l0.39-32.36,3.78-6.11a32.36,32.36,0,0,1,9.9-9.9l6.12-3.78,114.79-.33L250,410.09V521.37l-112.81-.09c-95.71-.07-113.57-0.37-117.81-1.92h0Zm354.37-53.64V410.09l114.79,0.33,114.79,0.33,6.12,3.78a32.36,32.36,0,0,1,9.9,9.9l3.78,6.11,0.39,32.36c0.45,37.5-.16,40.91-8.85,49.43-9.72,9.53-2.82,9-128.57,9H373.78v-55.6h0ZM19.84,314.64a29.3,29.3,0,0,1-18-18.34c-1.4-4.07-1.84-12-1.84-35.48,0-34.22.74-38.29,8.38-46.16,9.34-9.62-1-8.87,126.93-9.24L250,205.07v111.3l-112.81,0c-89.43,0-113.76-.39-117.37-1.68h0Zm353.93-53.89V205.07l114.69,0.34c127.16,0.37,117.64-.27,126.47,8.56,8.23,8.23,8.22,8.2,8.22,46.88V296l-3.78,6.12a32.31,32.31,0,0,1-9.9,9.9l-6.12,3.78-114.79.34-114.79.34V260.75h0ZM16.5,108.13A28.64,28.64,0,0,1,1.81,91.69c-2.26-6.33-2.47-63.33-.26-70.8S14,3.49,21.52,1.6c8.5-2.14,574.15-2.13,581.3,0,2.73,0.82,7.68,3.93,11,6.91,9.61,8.64,10.19,11.61,9.73,50.07L623.15,91l-3.78,6.11a32.35,32.35,0,0,1-9.9,9.9l-6.12,3.78-290.15.32L23,111.39l-6.55-3.26h0Z" transform="translate(0 0)"/></svg>